<svg width="29" height="29" viewBox="0 0 29 29" fill="none" xmlns="http://www.w3.org/2000/svg">
<path d="M28.2574 15.2249C28.0612 15.1585 27.5338 14.9456 27.389 14.7383C27.366 14.7053 27.3301 14.6344 27.2848 14.5446C27.0182 14.017 26.3938 12.7814 25.133 12.7814C24.9348 12.7814 24.727 12.8127 24.5152 12.8745C23.3299 13.2203 22.7611 14.0066 22.3459 14.5806C22.1068 14.9113 21.9178 15.1724 21.705 15.2132C21.6381 15.2261 21.5753 15.2326 21.5184 15.2326C21.3154 15.2326 21.2017 15.1554 21.1804 15.0032C21.1005 14.4315 21.1188 13.7186 21.1381 12.9638C21.17 11.7151 21.2062 10.2999 20.7911 9.18953C20.1143 7.3792 18.6034 5.92076 17.3893 4.74895C17.0859 4.4561 16.7994 4.17951 16.5536 3.92523C16.4593 3.80869 16.3612 3.70266 16.2663 3.60003C16.1286 3.45114 15.9984 3.31049 15.9035 3.16241C15.496 2.52721 15.2106 1.80661 14.964 1.12595C14.9406 1.05147 14.9174 0.976334 14.8944 0.900472C14.8575 0.778916 14.8169 0.686232 14.7704 0.617488C14.6361 0.295763 14.4778 0 14.2336 0C14.1955 0 14.1563 0.00744058 14.1174 0.02216C13.6974 0.181 13.6052 1.05195 13.5238 1.82044C13.482 2.21511 13.4425 2.58795 13.3656 2.77113C13.2663 3.00769 13.1123 3.14761 12.9493 3.29561C12.7564 3.47071 12.5571 3.65171 12.4638 3.99317C12.3704 4.3343 12.4639 4.53067 12.5544 4.72048C12.6305 4.88038 12.7025 5.03129 12.6634 5.28298C12.6224 5.54712 12.495 5.68978 12.3602 5.84094C12.2164 6.00204 12.0677 6.16865 12.0424 6.47347C12.0162 6.78824 12.1817 6.99261 12.3419 7.19035C12.4819 7.36319 12.6141 7.52647 12.6109 7.75875C12.6081 7.95584 12.4913 8.05395 12.3436 8.17817C12.15 8.34081 11.909 8.54325 11.988 9.03044C12.0403 9.35233 12.2528 9.52039 12.4404 9.66863C12.6207 9.81122 12.731 9.90689 12.723 10.0695C12.7169 10.1932 12.6788 10.3253 12.6385 10.4652C12.5423 10.799 12.4332 11.1775 12.7155 11.5922C12.8173 11.7416 13.156 12.0413 13.5322 12.3481C12.4993 11.8749 10.9651 11.2777 9.36087 11.026C6.72941 10.6131 4.17737 9.59237 2.80628 9.04395C2.16089 8.78579 1.87063 8.6716 1.75619 8.6716C1.68203 8.6716 1.6576 8.71713 1.65048 8.73678C1.62323 8.81224 1.68866 8.88325 1.84572 9.0137L2.26821 9.3643C2.83491 9.83419 3.27965 10.2029 3.46866 10.3884C3.37629 10.3556 3.24406 10.3017 3.07269 10.2273C2.98219 10.188 2.90948 10.2035 2.86928 10.2622C2.84995 10.2904 2.84057 10.3261 2.84057 10.3711C2.84057 10.8713 4.28089 13.3308 6.2706 15.7039C7.70663 17.4165 10.4656 20.2897 12.8087 20.2897C12.9485 20.2897 13.0861 20.2795 13.2199 20.2591C12.2882 21.2231 8.90117 23.7634 5.89817 25.0098C2.26943 26.5161 0.631285 27.29 0.516684 27.8947C0.490642 28.0321 0.538197 28.1605 0.658055 28.2763C0.817623 28.4305 0.966516 28.5022 1.12673 28.5022C1.2398 28.5022 1.34356 28.4661 1.44385 28.4311C1.54656 28.3954 1.65275 28.3583 1.77293 28.3583C1.90718 28.3583 2.04661 28.4053 2.19906 28.5019C2.57959 28.7428 3.03654 29 3.64642 29C4.28178 29 4.98281 28.722 5.78963 28.1502C5.94079 28.0432 6.07787 27.9954 6.23437 27.9954C6.32268 27.9954 6.4093 28.0101 6.50085 28.0256C6.60066 28.0425 6.70393 28.0601 6.81813 28.0601C7.07782 28.0601 7.32498 27.9634 7.59567 27.7559C9.59306 26.2249 11.7712 25.9383 14.0774 25.6348C16.7977 25.2767 19.6107 24.9065 22.6358 22.58C25.2103 20.6001 25.7183 18.8999 26.0546 17.7747C26.0901 17.6563 26.1234 17.5446 26.157 17.4403C26.4939 16.3962 26.6914 16.1523 26.938 16.0675C27.1017 16.0112 27.5067 15.8476 27.8641 15.7033C28.1155 15.6018 28.3327 15.514 28.3929 15.4933C28.4816 15.4628 28.4921 15.4085 28.4905 15.3787C28.4888 15.3483 28.4849 15.2772 28.2574 15.2249Z" fill="#00DDC2"/>
</svg>
