<svg width="22" height="22" viewBox="0 0 22 22" fill="none" xmlns="http://www.w3.org/2000/svg">
<path d="M11.0254 0.457025C10.6696 0.456306 10.3107 0.472203 9.94925 0.50962C4.1658 1.08755 -0.0700755 6.26324 0.507844 12.0467C0.798772 14.958 2.26073 17.4734 4.37113 19.1834L2.77347 19.5545C2.64526 19.584 2.5241 19.6384 2.41694 19.7146C2.30977 19.7909 2.21871 19.8876 2.14895 19.9991C2.07919 20.1106 2.03212 20.2349 2.01041 20.3646C1.98871 20.4943 1.99281 20.6271 2.02247 20.7553C2.05213 20.8834 2.10678 21.0044 2.18328 21.1114C2.25978 21.2184 2.35664 21.3093 2.4683 21.3788C2.57996 21.4483 2.70424 21.4952 2.83403 21.5166C2.96381 21.5381 3.09655 21.5336 3.22464 21.5037L7.35745 20.5369C7.61438 20.4765 7.83699 20.3169 7.97675 20.093C8.11651 19.8691 8.16209 19.599 8.10355 19.3416L7.14456 15.2068C7.09357 14.9759 6.96239 14.7705 6.77431 14.6271C6.58623 14.4838 6.35342 14.4117 6.11722 14.4237C5.96963 14.4309 5.82547 14.4707 5.6951 14.5403C5.56473 14.6098 5.4514 14.7074 5.36325 14.826C5.2751 14.9446 5.21432 15.0812 5.18529 15.2261C5.15626 15.371 5.15969 15.5205 5.19534 15.6639L5.65628 17.6542C3.9308 16.268 2.73804 14.2293 2.50003 11.8475C2.02959 7.13958 5.44055 2.96636 10.1485 2.49593C14.8564 2.02545 19.0315 5.44232 19.502 10.1503C19.9724 14.8581 16.5537 19.0334 11.8457 19.5038C11.712 19.5131 11.5814 19.5491 11.4619 19.6098C11.3423 19.6705 11.2361 19.7545 11.1496 19.857C11.0632 19.9594 10.9981 20.0783 10.9584 20.2063C10.9187 20.3344 10.9051 20.4691 10.9185 20.6025C10.9318 20.736 10.9718 20.8654 11.0361 20.9831C11.1004 21.1007 11.1876 21.2042 11.2927 21.2876C11.3977 21.3709 11.5185 21.4323 11.6477 21.4681C11.7769 21.5039 11.912 21.5134 12.045 21.496C17.8284 20.9181 22.0721 15.7345 21.4942 9.95106C20.9524 4.52906 16.3625 0.467265 11.0254 0.456909V0.457025Z" fill="white"/>
</svg>
