<svg width="34" height="30" viewBox="0 0 34 30" fill="none" xmlns="http://www.w3.org/2000/svg">
<path d="M25.1422 16.9396C22.8546 14.1776 19.9631 12.6565 17.0002 12.6565C14.0373 12.6565 11.1458 14.1776 8.85836 16.9396C6.80223 19.4222 5.57471 22.551 5.57471 25.3091C5.57471 26.6489 5.9843 27.6694 6.79207 28.3424C7.58934 29.0068 8.64194 29.2315 9.81627 29.2314C11.0658 29.2314 12.4533 28.977 13.8166 28.7269C15.0078 28.5083 16.133 28.3019 17.0003 28.3019C17.7488 28.3019 18.8042 28.4978 19.9214 28.7052C22.5323 29.19 25.4916 29.7393 27.2011 28.3179C28.0138 27.6423 28.4258 26.6299 28.4258 25.3091C28.4259 22.551 27.1984 19.4222 25.1422 16.9396Z" fill="#00DDC2"/>
<path d="M25.3757 1.94184C24.5388 0.707814 23.3403 0.00012207 22.0875 0.00012207C20.8347 0.00012207 19.6362 0.70788 18.7993 1.94184C18.0304 3.07546 17.6069 4.56416 17.6069 6.13374C17.6069 7.70331 18.0303 9.19201 18.7993 10.3256C19.6362 11.5596 20.8347 12.2673 22.0875 12.2673C23.3403 12.2673 24.5388 11.5596 25.3757 10.3256C26.1446 9.19201 26.5681 7.70331 26.5681 6.13374C26.5681 4.56416 26.1447 3.0754 25.3757 1.94184Z" fill="#00DDC2"/>
<path d="M15.2004 1.94172C14.3635 0.707691 13.165 0 11.9122 0C10.6594 0 9.46088 0.707758 8.62397 1.94172C7.85511 3.07534 7.43164 4.56404 7.43164 6.13361C7.43164 7.70319 7.85505 9.19189 8.62397 10.3255C9.46095 11.5595 10.6594 12.2673 11.9122 12.2673C13.165 12.2673 14.3635 11.5595 15.2004 10.3255C15.9693 9.19189 16.3928 7.70326 16.3928 6.13361C16.3927 4.56404 15.9693 3.07527 15.2004 1.94172Z" fill="#00DDC2"/>
<path d="M33.802 11.5698C33.4646 10.4221 32.7414 9.58807 31.7657 9.22158C30.9805 8.92667 30.0942 8.97667 29.2699 9.36242C28.134 9.89394 27.2056 10.9915 26.7228 12.3736C26.3283 13.5031 26.2791 14.6968 26.5844 15.7352C26.9218 16.883 27.645 17.717 28.6208 18.0835C28.9585 18.2103 29.3147 18.2733 29.6768 18.2733C30.1567 18.2733 30.6468 18.1625 31.1166 17.9426C32.2525 17.4111 33.1809 16.3136 33.6637 14.9315V14.9315C34.0581 13.8021 34.1073 12.6082 33.802 11.5698Z" fill="#00DDC2"/>
<path d="M7.27721 12.3735C6.79437 10.9914 5.86595 9.89391 4.73013 9.3624C3.90583 8.97664 3.01944 8.92671 2.23432 9.22155C1.25855 9.58811 0.535318 10.4221 0.197908 11.5698C-0.107362 12.6082 -0.0581548 13.8021 0.336365 14.9314V14.9315C0.819271 16.3136 1.74763 17.4111 2.88344 17.9426C3.35333 18.1625 3.84335 18.2733 4.32326 18.2733C4.68531 18.2733 5.04165 18.2102 5.37926 18.0835C6.35516 17.7169 7.07833 16.8829 7.41574 15.7352C7.72087 14.6969 7.67167 13.503 7.27721 12.3735Z" fill="#00DDC2"/>
</svg>
