<svg width="20" height="20" viewBox="0 0 20 20" fill="none" xmlns="http://www.w3.org/2000/svg">
<path d="M3.07676 13.3949V4.79163H1.75877C0.784527 4.79163 0 5.58834 0 6.56171V18.1934C0 19.1681 0.784527 19.9561 1.75877 19.9561H13.3909C14.3647 19.9561 15.1645 19.1681 15.1645 18.1934V16.9229H6.60473C4.67018 16.9233 3.07676 15.3299 3.07676 13.3949Z" fill="white"/>
<path d="M18.2372 0H6.60466C5.63085 0 4.83545 0.788878 4.83545 1.76268V13.3948C4.83545 14.3699 5.63129 15.1645 6.60466 15.1645H18.2372C19.2106 15.1645 19.9999 14.3699 19.9999 13.3948V1.76312C19.9999 0.788443 19.2106 0 18.2372 0ZM17.9979 12.418C17.9009 12.5973 17.7142 12.7034 17.5106 12.7034H7.54322C7.36787 12.7034 7.20295 12.6251 7.09852 12.485C6.99409 12.344 6.96233 12.1647 7.01281 11.9963L8.4387 7.28005C8.53269 6.9698 8.79463 6.74049 9.11488 6.68784C9.43514 6.63563 9.75713 6.77052 9.9451 7.03464L11.9388 9.83552C12.2073 10.2128 12.7273 10.3063 13.1089 10.0461L14.9447 8.7995C15.1335 8.67113 15.3654 8.62458 15.5886 8.66939C15.8127 8.71378 16.009 8.84692 16.1339 9.03838L17.974 11.8545C18.0854 12.0255 18.0945 12.2396 17.9979 12.418Z" fill="white"/>
</svg>
