<svg width="26" height="30" viewBox="0 0 26 30" fill="none" xmlns="http://www.w3.org/2000/svg">
<path d="M16.473 12.8915C15.696 12.7786 14.9128 12.7145 14.1278 12.6995L11.7006 12.6545C10.9068 12.6398 10.1129 12.6755 9.3237 12.7615L6.97598 21.6765C6.89147 21.9976 6.83927 22.3264 6.82015 22.658L6.70055 24.7316C6.67994 25.0406 6.69082 25.351 6.73302 25.6578C6.89439 26.7547 7.4448 27.7571 8.28379 28.4819C9.12279 29.2067 10.1944 29.6056 11.3032 29.6059H13.7652C14.8839 29.603 15.9637 29.1953 16.8052 28.4581C17.6467 27.721 18.193 26.7042 18.3432 25.5956C18.3432 25.5941 18.3436 25.592 18.3438 25.5906C18.4035 25.1386 18.3959 24.6803 18.3213 24.2306L16.473 12.8915Z" fill="#00DDC2"/>
<path d="M22.2163 4.34692C17.8251 0.4506 14.7902 0 12.8893 0C10.5304 0 8.27588 0.643955 6.18832 1.91394C4.3184 3.05135 2.65884 4.6626 1.38859 6.57349C1.08025 7.0374 0.722109 7.58682 0.403962 8.14442C0.160548 8.56242 0.022775 9.03348 0.00259049 9.51677C-0.0175941 10.0001 0.0804191 10.481 0.288131 10.9178C0.758338 11.9169 1.74251 12.6359 2.92044 12.8412L2.92336 12.8417C3.43912 12.9303 3.96728 12.9169 4.47786 12.8021L7.01284 12.227C8.43668 11.9045 9.89206 11.7418 11.352 11.7421C11.4739 11.7421 11.5957 11.7432 11.7174 11.7454L14.1446 11.7906C15.2868 11.8119 16.4248 11.9326 17.546 12.1514L21.0794 12.8423C21.5432 12.9332 22.0195 12.9403 22.4857 12.863L22.9131 12.7927C24.1094 12.5955 25.1091 11.8729 25.5871 10.8596C25.7959 10.4233 25.894 9.94219 25.8726 9.45892C25.8513 8.97564 25.7113 8.50506 25.4649 8.08878C24.7633 6.88001 23.731 5.69093 22.2163 4.34692Z" fill="#00DDC2"/>
</svg>
