<svg width="30" height="30" viewBox="0 0 30 30" fill="none" xmlns="http://www.w3.org/2000/svg">
<path d="M28.2415 0C22.2437 0 15 4.30664 15 9.65468C15 9.686 15.0087 9.77517 15.0127 9.80649C15.0227 10.1101 15.2317 10.3711 15.526 10.4457C15.8183 10.5209 16.1293 10.3925 16.2824 10.1301C18.0755 7.07121 20.7056 4.7188 24.3244 2.93766C24.6594 2.76987 25.0735 2.91899 25.2359 3.24793C25.3165 3.41176 25.3285 3.59681 25.2699 3.76926C25.2113 3.94172 25.0894 4.08088 24.9263 4.16078C20.8594 6.16347 18.127 8.91985 16.5689 12.5813C16.5436 12.6185 16.5116 12.6496 16.4935 12.6928C15.516 15.0499 15.0133 17.847 15 21.0072C14.7594 20.3734 14.4754 19.7707 14.1698 19.1829C14.7117 18.3515 15 17.4469 15 16.4728C15 11.1248 7.75631 6.81814 1.75845 6.81814C0.789035 6.81821 0 7.60718 0 8.57666C0 14.5745 4.30664 21.8182 9.65532 21.8182C10.9711 21.8182 12.1636 21.3033 13.2113 20.3174C14.4061 22.8367 15 25.7952 15 29.3182C15 29.6951 15.3049 30.0001 15.6818 30.0001C16.0587 30.0001 16.3636 29.6951 16.3636 29.3182V21.1364C16.3636 18.468 16.7467 16.1052 17.4614 14.0569C18.3408 14.6793 19.3061 15 20.3453 15C25.6934 15 30 7.75637 30 1.75852C30 0.789035 29.211 0 28.2415 0Z" fill="#00DDC2"/>
</svg>
