<svg width="20" height="20" viewBox="0 0 20 20" fill="none" xmlns="http://www.w3.org/2000/svg">
<path d="M19.4427 15.8913L14.8203 11.9695C14.7103 11.8778 14.5755 11.8283 14.4387 11.8283C14.2476 11.8283 14.0656 11.9246 13.952 12.0859C13.4259 12.8319 12.781 13.4773 12.0348 14.0039C11.8959 14.1019 11.8039 14.2518 11.7825 14.4151C11.761 14.5786 11.8088 14.7403 11.9171 14.8703L15.8413 19.4967C16.1072 19.8158 16.4933 20 16.899 20C17.2636 20 17.6109 19.8535 17.8769 19.5875L19.5357 17.9287C19.8184 17.646 19.9643 17.2771 19.9467 16.8897C19.929 16.502 19.7501 16.1475 19.4427 15.8913Z" fill="white"/>
<path d="M7.39645 14.6893C9.35809 14.6893 11.2025 13.9253 12.5898 12.538C13.9771 11.1507 14.7411 9.30642 14.7411 7.34467C14.7411 3.29486 11.4463 0 7.39645 0C3.34654 0 0.0518799 3.29486 0.0518799 7.34467C0.0518799 11.3945 3.34664 14.6893 7.39645 14.6893ZM2.43201 7.34467C2.43201 4.60725 4.65903 2.38023 7.39645 2.38023C10.1339 2.38023 12.3609 4.60725 12.3609 7.34467C12.3609 8.66854 11.844 9.91462 10.9052 10.8533C9.9664 11.792 8.72032 12.309 7.39645 12.309C4.65903 12.3091 2.43201 10.0821 2.43201 7.34467Z" fill="white"/>
</svg>
